<svg width="121" height="28" viewBox="0 0 121 28" fill="none" xmlns="http://www.w3.org/2000/svg">
<path d="M7.37942 6.80451H10.1258L9.64022 10.6773H6.92567L6.20922 16.5379C6.06593 17.5358 6.44008 17.9081 7.09284 17.9081C7.55455 17.9081 8.00831 17.821 8.54962 17.6784L8.29488 21.5512C7.00528 21.8363 6.08981 21.9789 4.9435 21.9789C1.31349 21.9789 0.565198 20.1256 0.995068 16.6251L1.7354 10.6456H0L0.374145 7.8024L2.17323 7.14506L2.54737 4.18305L7.80929 3.30396L7.37942 6.80451Z" fill="#0D58C6"/>
<path d="M21.6389 6.83591L20.5483 11.6432C20.1184 11.4452 19.7204 11.3581 19.2587 11.3581C18.0885 11.3581 17.1412 11.8175 16.369 13.2114L15.3421 21.638H10.1677L11.9986 6.80423H16.3212L16.2337 7.46158L15.7162 9.28313H16.0904C17.1491 7.4299 18.6059 6.49536 20.1821 6.49536C20.7791 6.49536 21.209 6.60624 21.6389 6.83591Z" fill="#0D58C6"/>
<path d="M34.0453 21.6346H30.2083L29.866 19.8447H29.6909C28.863 21.2703 27.2311 21.983 25.631 21.983C22.5423 21.983 21.396 20.1615 21.8577 16.4629L23.0598 6.81662H28.2023L27.1196 15.6789C26.9445 16.9619 27.1754 17.643 28.067 17.643C28.6401 17.643 29.1257 17.247 29.468 16.6768L30.7019 6.80078H35.8444L34.0453 21.6346Z" fill="#0D58C6"/>
<path d="M54.3409 17.9258C54.5956 17.9258 54.8026 17.8703 55.0255 17.8149V21.6006C54.0782 21.7986 53.107 21.9411 52.1915 21.9411C48.9834 21.9411 47.9247 20.4047 48.4182 16.4765L49.875 4.60467C49.0153 4.51755 48.2431 4.46211 47.5266 4.46211C45.7276 4.46211 44.9235 4.88978 44.7803 6.05399L44.6927 6.79053H47.1286L46.643 10.6316H44.2071L42.201 27.4295L36.8516 27.9998L39.0248 10.6316H37.3053L37.6795 7.52708L39.4547 7.06773L39.5422 6.35494C40.0597 2.28416 43.2598 0.573486 48.1555 0.573486C49.1586 0.573486 50.6711 0.684364 51.8492 0.890279L55.5429 0.573486L53.5687 16.6032C53.4254 17.5852 53.7677 17.9258 54.3409 17.9258Z" fill="#0D58C6"/>
<path d="M66.6549 8.19477H66.7107L67.3953 6.80088H70.9695L69.1068 21.6347H64.8161L64.8718 21.0644L65.5007 19.2429H65.1026C64.2429 20.8902 62.6667 21.9752 60.7243 21.9752C57.4924 21.9752 55.8923 19.2983 56.4893 14.2613C57.174 8.6858 59.379 6.43657 62.7543 6.43657C64.8479 6.42865 66.1375 7.40279 66.6549 8.19477ZM61.9582 13.7466C61.5841 16.7957 61.9901 17.9599 62.9851 17.9599C63.6459 17.9599 64.2429 17.4451 64.5613 16.764L65.3016 10.9271C65.0469 10.3569 64.617 9.9292 63.9006 9.9292C62.8737 9.9292 62.3085 10.9271 61.9582 13.7466Z" fill="#0D58C6"/>
<path d="M79.8007 6.80451H82.5471L82.0615 10.6773H79.3469L78.6305 16.5379C78.4872 17.5358 78.8613 17.9081 79.5141 17.9081C79.9758 17.9081 80.4296 17.821 80.9709 17.6784L80.7161 21.5512C79.4265 21.8363 78.5111 21.9789 77.3648 21.9789C73.7348 21.9789 72.9865 20.1256 73.4164 16.6251L74.1567 10.6456H72.4133L72.7875 7.8024L74.5865 7.14506L74.9607 4.18305L80.2226 3.30396L79.8007 6.80451Z" fill="#0D58C6"/>
<path d="M87.7634 21.6369H82.5811L84.3881 6.80311H89.5704L87.7634 21.6369ZM90.3346 2.70065C90.1595 4.21334 88.6788 5.40131 87.1902 5.40131C85.6459 5.40131 84.4995 4.20542 84.6747 2.70065C84.8498 1.21965 86.2748 0 87.8509 0C89.3396 0 90.5416 1.22757 90.3346 2.70065Z" fill="#0D58C6"/>
<path d="M104.608 14.095C103.892 20.0982 100.915 21.9831 96.7433 21.9831C92.7949 21.9831 90.1043 20.0744 90.8207 14.095C91.5371 8.28976 94.4268 6.43652 98.6618 6.43652C102.698 6.43652 105.325 8.3452 104.608 14.095ZM96.2259 14.0395C95.8279 17.2312 96.1702 18.6489 97.1732 18.6489C98.2001 18.6489 98.8927 17.2233 99.2907 14.0395C99.6649 10.9904 99.2907 9.79452 98.2638 9.79452C97.2608 9.79452 96.6 10.9904 96.2259 14.0395Z" fill="#0D58C6"/>
<path d="M119.967 12.1859L118.821 21.6342H113.639L114.729 12.6928C114.928 11.2989 114.586 10.7604 113.782 10.7604C113.185 10.7604 112.58 11.1563 112.182 11.7266L110.98 21.6342H105.798L107.629 6.80045H111.951L111.895 7.339L111.354 9.12887H111.728C112.755 7.56075 114.363 6.42822 116.361 6.42822C119.219 6.43614 120.453 8.34481 119.967 12.1859Z" fill="#0D58C6"/>
</svg>
